<mxfile host="app.diagrams.net" modified="2022-09-07T10:39:17.885Z" agent="5.0 (Macintosh; Intel Mac OS X 10_15_7) AppleWebKit/537.36 (KHTML, like Gecko) Chrome/104.0.0.0 Safari/537.36" etag="vk7MHUzY0dpnroypVFP6" version="20.2.8" type="github">
  <diagram id="IIxUh8k_3X5q0-puIspq" name="第 1 页">
    <mxGraphModel dx="2066" dy="1068" grid="1" gridSize="10" guides="1" tooltips="1" connect="1" arrows="1" fold="1" page="1" pageScale="1" pageWidth="827" pageHeight="1169" math="0" shadow="0">
      <root>
        <mxCell id="0" />
        <mxCell id="1" parent="0" />
        <mxCell id="oT1laNTbchEnXjBInsRf-2" style="edgeStyle=orthogonalEdgeStyle;rounded=0;orthogonalLoop=1;jettySize=auto;html=1;" edge="1" parent="1" source="oT1laNTbchEnXjBInsRf-15" target="oT1laNTbchEnXjBInsRf-4">
          <mxGeometry relative="1" as="geometry">
            <mxPoint x="210" y="320" as="targetPoint" />
          </mxGeometry>
        </mxCell>
        <mxCell id="oT1laNTbchEnXjBInsRf-3" value="&lt;span style=&quot;color: rgb(0, 0, 0); font-family: Helvetica; font-size: 12px; font-style: normal; font-variant-ligatures: normal; font-variant-caps: normal; font-weight: 400; letter-spacing: normal; orphans: 2; text-align: center; text-indent: 0px; text-transform: none; widows: 2; word-spacing: 0px; -webkit-text-stroke-width: 0px; background-color: rgb(248, 249, 250); text-decoration-thickness: initial; text-decoration-style: initial; text-decoration-color: initial; float: none; display: inline !important;&quot;&gt;obtain 成功得到对象&lt;br&gt;page.size ++&lt;br&gt;&lt;/span&gt;" style="edgeLabel;html=1;align=center;verticalAlign=middle;resizable=0;points=[];" vertex="1" connectable="0" parent="oT1laNTbchEnXjBInsRf-2">
          <mxGeometry x="-0.14" y="-1" relative="1" as="geometry">
            <mxPoint y="7" as="offset" />
          </mxGeometry>
        </mxCell>
        <mxCell id="oT1laNTbchEnXjBInsRf-6" style="edgeStyle=orthogonalEdgeStyle;rounded=0;orthogonalLoop=1;jettySize=auto;html=1;" edge="1" parent="1" source="oT1laNTbchEnXjBInsRf-15" target="oT1laNTbchEnXjBInsRf-7">
          <mxGeometry relative="1" as="geometry">
            <mxPoint x="380" y="320" as="targetPoint" />
          </mxGeometry>
        </mxCell>
        <mxCell id="oT1laNTbchEnXjBInsRf-8" value="obtain 结果为 null" style="edgeLabel;html=1;align=center;verticalAlign=middle;resizable=0;points=[];" vertex="1" connectable="0" parent="oT1laNTbchEnXjBInsRf-6">
          <mxGeometry x="0.4" relative="1" as="geometry">
            <mxPoint x="-50" as="offset" />
          </mxGeometry>
        </mxCell>
        <mxCell id="oT1laNTbchEnXjBInsRf-16" value="" style="edgeStyle=orthogonalEdgeStyle;rounded=0;orthogonalLoop=1;jettySize=auto;html=1;" edge="1" parent="1" source="oT1laNTbchEnXjBInsRf-1" target="oT1laNTbchEnXjBInsRf-15">
          <mxGeometry relative="1" as="geometry" />
        </mxCell>
        <mxCell id="oT1laNTbchEnXjBInsRf-1" value="尝试获取 QLogItem" style="rounded=0;whiteSpace=wrap;html=1;" vertex="1" parent="1">
          <mxGeometry x="60" y="30" width="120" height="60" as="geometry" />
        </mxCell>
        <mxCell id="oT1laNTbchEnXjBInsRf-4" value="返回空对象" style="rounded=0;whiteSpace=wrap;html=1;" vertex="1" parent="1">
          <mxGeometry x="60" y="760" width="120" height="60" as="geometry" />
        </mxCell>
        <mxCell id="oT1laNTbchEnXjBInsRf-14" style="edgeStyle=orthogonalEdgeStyle;rounded=0;orthogonalLoop=1;jettySize=auto;html=1;" edge="1" parent="1" source="oT1laNTbchEnXjBInsRf-7" target="oT1laNTbchEnXjBInsRf-12">
          <mxGeometry relative="1" as="geometry" />
        </mxCell>
        <mxCell id="oT1laNTbchEnXjBInsRf-7" value="尝试获取新页" style="rounded=0;whiteSpace=wrap;html=1;" vertex="1" parent="1">
          <mxGeometry x="430" y="200" width="120" height="40" as="geometry" />
        </mxCell>
        <mxCell id="oT1laNTbchEnXjBInsRf-22" value="" style="edgeStyle=orthogonalEdgeStyle;rounded=0;orthogonalLoop=1;jettySize=auto;html=1;" edge="1" parent="1" source="oT1laNTbchEnXjBInsRf-12" target="oT1laNTbchEnXjBInsRf-24">
          <mxGeometry relative="1" as="geometry">
            <mxPoint x="490" y="560" as="targetPoint" />
          </mxGeometry>
        </mxCell>
        <mxCell id="oT1laNTbchEnXjBInsRf-23" value="&lt;span style=&quot;&quot;&gt;有可利用的回收页&lt;/span&gt;" style="edgeLabel;html=1;align=center;verticalAlign=middle;resizable=0;points=[];" vertex="1" connectable="0" parent="oT1laNTbchEnXjBInsRf-22">
          <mxGeometry x="-0.1727" y="-1" relative="1" as="geometry">
            <mxPoint as="offset" />
          </mxGeometry>
        </mxCell>
        <mxCell id="oT1laNTbchEnXjBInsRf-27" value="" style="edgeStyle=orthogonalEdgeStyle;rounded=0;orthogonalLoop=1;jettySize=auto;html=1;" edge="1" parent="1" source="oT1laNTbchEnXjBInsRf-12" target="oT1laNTbchEnXjBInsRf-26">
          <mxGeometry relative="1" as="geometry" />
        </mxCell>
        <mxCell id="oT1laNTbchEnXjBInsRf-28" value="没有可利用的回收页" style="edgeLabel;html=1;align=center;verticalAlign=middle;resizable=0;points=[];" vertex="1" connectable="0" parent="oT1laNTbchEnXjBInsRf-27">
          <mxGeometry x="-0.1" y="4" relative="1" as="geometry">
            <mxPoint as="offset" />
          </mxGeometry>
        </mxCell>
        <mxCell id="oT1laNTbchEnXjBInsRf-12" value="&lt;span style=&quot;font-size: 11px; background-color: rgb(255, 255, 255);&quot;&gt;是否有可利用的已回收页：&lt;br&gt;判断当前总对象数量与已利用的数量。&lt;br&gt;&lt;/span&gt;" style="rhombus;whiteSpace=wrap;html=1;" vertex="1" parent="1">
          <mxGeometry x="340" y="330" width="300" height="120" as="geometry" />
        </mxCell>
        <mxCell id="oT1laNTbchEnXjBInsRf-15" value="判断当前页是否有空余对象：&lt;br&gt;直接 obtain" style="rhombus;whiteSpace=wrap;html=1;rounded=0;" vertex="1" parent="1">
          <mxGeometry x="10" y="180" width="220" height="80" as="geometry" />
        </mxCell>
        <mxCell id="oT1laNTbchEnXjBInsRf-25" style="edgeStyle=orthogonalEdgeStyle;rounded=0;orthogonalLoop=1;jettySize=auto;html=1;entryX=1;entryY=0.5;entryDx=0;entryDy=0;" edge="1" parent="1" source="oT1laNTbchEnXjBInsRf-24" target="oT1laNTbchEnXjBInsRf-4">
          <mxGeometry relative="1" as="geometry">
            <Array as="points">
              <mxPoint x="490" y="790" />
            </Array>
          </mxGeometry>
        </mxCell>
        <mxCell id="oT1laNTbchEnXjBInsRf-24" value="返回可利用页" style="rounded=0;whiteSpace=wrap;html=1;" vertex="1" parent="1">
          <mxGeometry x="311" y="555" width="358" height="60" as="geometry" />
        </mxCell>
        <mxCell id="oT1laNTbchEnXjBInsRf-29" style="edgeStyle=orthogonalEdgeStyle;rounded=0;orthogonalLoop=1;jettySize=auto;html=1;" edge="1" parent="1" source="oT1laNTbchEnXjBInsRf-26">
          <mxGeometry relative="1" as="geometry">
            <mxPoint x="960" y="550" as="targetPoint" />
          </mxGeometry>
        </mxCell>
        <mxCell id="oT1laNTbchEnXjBInsRf-30" value="可创建" style="edgeLabel;html=1;align=center;verticalAlign=middle;resizable=0;points=[];" vertex="1" connectable="0" parent="oT1laNTbchEnXjBInsRf-29">
          <mxGeometry x="-0.04" y="2" relative="1" as="geometry">
            <mxPoint as="offset" />
          </mxGeometry>
        </mxCell>
        <mxCell id="oT1laNTbchEnXjBInsRf-35" value="" style="edgeStyle=orthogonalEdgeStyle;rounded=0;orthogonalLoop=1;jettySize=auto;html=1;" edge="1" parent="1" source="oT1laNTbchEnXjBInsRf-26" target="oT1laNTbchEnXjBInsRf-34">
          <mxGeometry relative="1" as="geometry" />
        </mxCell>
        <mxCell id="oT1laNTbchEnXjBInsRf-36" value="已满" style="edgeLabel;html=1;align=center;verticalAlign=middle;resizable=0;points=[];" vertex="1" connectable="0" parent="oT1laNTbchEnXjBInsRf-35">
          <mxGeometry x="-0.0383" y="4" relative="1" as="geometry">
            <mxPoint y="1" as="offset" />
          </mxGeometry>
        </mxCell>
        <mxCell id="oT1laNTbchEnXjBInsRf-26" value="&lt;span style=&quot;font-size: 11px; background-color: rgb(255, 255, 255);&quot;&gt;是否可创建新页：&lt;br&gt;判断当前页数与页数上限&lt;br&gt;&lt;/span&gt;" style="rhombus;whiteSpace=wrap;html=1;" vertex="1" parent="1">
          <mxGeometry x="810" y="330" width="300" height="120" as="geometry" />
        </mxCell>
        <mxCell id="oT1laNTbchEnXjBInsRf-32" value="" style="edgeStyle=orthogonalEdgeStyle;rounded=0;orthogonalLoop=1;jettySize=auto;html=1;" edge="1" parent="1" source="oT1laNTbchEnXjBInsRf-31" target="oT1laNTbchEnXjBInsRf-26">
          <mxGeometry relative="1" as="geometry" />
        </mxCell>
        <mxCell id="oT1laNTbchEnXjBInsRf-33" style="edgeStyle=orthogonalEdgeStyle;rounded=0;orthogonalLoop=1;jettySize=auto;html=1;" edge="1" parent="1" source="oT1laNTbchEnXjBInsRf-31" target="oT1laNTbchEnXjBInsRf-4">
          <mxGeometry relative="1" as="geometry">
            <Array as="points">
              <mxPoint x="960" y="790" />
            </Array>
          </mxGeometry>
        </mxCell>
        <mxCell id="oT1laNTbchEnXjBInsRf-31" value="创建新页" style="rounded=0;whiteSpace=wrap;html=1;" vertex="1" parent="1">
          <mxGeometry x="781" y="555" width="358" height="60" as="geometry" />
        </mxCell>
        <mxCell id="oT1laNTbchEnXjBInsRf-37" style="edgeStyle=orthogonalEdgeStyle;rounded=0;orthogonalLoop=1;jettySize=auto;html=1;" edge="1" parent="1" source="oT1laNTbchEnXjBInsRf-34" target="oT1laNTbchEnXjBInsRf-4">
          <mxGeometry relative="1" as="geometry">
            <Array as="points">
              <mxPoint x="1415" y="790" />
            </Array>
          </mxGeometry>
        </mxCell>
        <mxCell id="oT1laNTbchEnXjBInsRf-34" value="回收最旧页，一个显然的问题是，回收多少，留多少，也应该按指数级回收。逻辑比较复杂。暂未实现。" style="whiteSpace=wrap;html=1;fillColor=#f8cecc;strokeColor=#b85450;" vertex="1" parent="1">
          <mxGeometry x="1310" y="555" width="210" height="60" as="geometry" />
        </mxCell>
      </root>
    </mxGraphModel>
  </diagram>
</mxfile>
